 <script type="module" src="home_dark_light_mode.js"></script>

<svg id="visual" viewBox="0 0 900 600" width="900" height="600" xmlns="http://www.w3.org/2000/svg" xmlns:xlink="http://www.w3.org/1999/xlink" version="1.1"><rect x="0" y="0" width="900" height="600" fill="#0D0D0D"></rect><path d="M0 217L21.5 212.5C43 208 86 199 128.8 201.2C171.7 203.3 214.3 216.7 257.2 220.7C300 224.7 343 219.3 385.8 210C428.7 200.7 471.3 187.3 514.2 186C557 184.7 600 195.3 642.8 204.2C685.7 213 728.3 220 771.2 213.7C814 207.3 857 187.7 878.5 177.8L900 168L900 0L878.5 0C857 0 814 0 771.2 0C728.3 0 685.7 0 642.8 0C600 0 557 0 514.2 0C471.3 0 428.7 0 385.8 0C343 0 300 0 257.2 0C214.3 0 171.7 0 128.8 0C86 0 43 0 21.5 0L0 0Z" fill="#024059"></path><path d="M0 184L21.5 174.5C43 165 86 146 128.8 146.2C171.7 146.3 214.3 165.7 257.2 164.7C300 163.7 343 142.3 385.8 142.3C428.7 142.3 471.3 163.7 514.2 172.7C557 181.7 600 178.3 642.8 180.2C685.7 182 728.3 189 771.2 186.2C814 183.3 857 170.7 878.5 164.3L900 158L900 0L878.5 0C857 0 814 0 771.2 0C728.3 0 685.7 0 642.8 0C600 0 557 0 514.2 0C471.3 0 428.7 0 385.8 0C343 0 300 0 257.2 0C214.3 0 171.7 0 128.8 0C86 0 43 0 21.5 0L0 0Z" fill="#F22222"></path><path d="M0 108L21.5 113.3C43 118.7 86 129.3 128.8 135.7C171.7 142 214.3 144 257.2 139.7C300 135.3 343 124.7 385.8 122.3C428.7 120 471.3 126 514.2 123.7C557 121.3 600 110.7 642.8 114.3C685.7 118 728.3 136 771.2 141.2C814 146.3 857 138.7 878.5 134.8L900 131L900 0L878.5 0C857 0 814 0 771.2 0C728.3 0 685.7 0 642.8 0C600 0 557 0 514.2 0C471.3 0 428.7 0 385.8 0C343 0 300 0 257.2 0C214.3 0 171.7 0 128.8 0C86 0 43 0 21.5 0L0 0Z" fill="#F22222"></path><path d="M0 117L21.5 112.3C43 107.7 86 98.3 128.8 92.2C171.7 86 214.3 83 257.2 83.2C300 83.3 343 86.7 385.8 83.2C428.7 79.7 471.3 69.3 514.2 72.3C557 75.3 600 91.7 642.8 98.8C685.7 106 728.3 104 771.2 101.7C814 99.3 857 96.7 878.5 95.3L900 94L900 0L878.5 0C857 0 814 0 771.2 0C728.3 0 685.7 0 642.8 0C600 0 557 0 514.2 0C471.3 0 428.7 0 385.8 0C343 0 300 0 257.2 0C214.3 0 171.7 0 128.8 0C86 0 43 0 21.5 0L0 0Z" fill="#F22222"></path><path d="M0 62L21.5 59.2C43 56.3 86 50.7 128.8 48.8C171.7 47 214.3 49 257.2 53.7C300 58.3 343 65.7 385.8 66.5C428.7 67.3 471.3 61.7 514.2 58.3C557 55 600 54 642.8 53.7C685.7 53.3 728.3 53.7 771.2 53.7C814 53.7 857 53.3 878.5 53.2L900 53L900 0L878.5 0C857 0 814 0 771.2 0C728.3 0 685.7 0 642.8 0C600 0 557 0 514.2 0C471.3 0 428.7 0 385.8 0C343 0 300 0 257.2 0C214.3 0 171.7 0 128.8 0C86 0 43 0 21.5 0L0 0Z" fill="#F22222"></path></svg>